<svg width="22" height="24" viewBox="0 0 22 24" fill="none" xmlns="http://www.w3.org/2000/svg">
<path d="M6.09375 1.875C6.09375 1.34375 6.28125 0.90625 6.65625 0.5625C7 0.1875 7.4375 0 7.96875 0C8.5 0 8.9375 0.1875 9.28125 0.5625C9.65625 0.90625 9.84375 1.34375 9.84375 1.875V8.8125C10.25 8.4375 10.75 8.25 11.3438 8.25C12.375 8.3125 13.0781 8.79688 13.4531 9.70312C13.8906 9.26562 14.4375 9.03125 15.0938 9C15.6875 9 16.2031 9.20312 16.6406 9.60938C17.0469 9.98438 17.2812 10.4688 17.3438 11.0625C17.75 10.6875 18.25 10.5 18.8438 10.5C19.4688 10.5312 20 10.75 20.4375 11.1562C20.8438 11.5938 21.0625 12.125 21.0938 12.75V15V15.75V18C21.0625 19.6875 20.4844 21.1094 19.3594 22.2656C18.2031 23.3906 16.7812 23.9688 15.0938 24H14.3438H11.3438H11.1094C10.8594 24 10.625 23.9844 10.4062 23.9531C9.09375 23.8281 7.875 23.4375 6.75 22.7812C5.625 22.1562 4.65625 21.3125 3.84375 20.25L0.46875 15.75C0.15625 15.3125 0.03125 14.8438 0.09375 14.3438C0.1875 13.875 0.4375 13.4688 0.84375 13.125C1.28125 12.8125 1.75 12.6875 2.25 12.75C2.71875 12.8438 3.125 13.0938 3.46875 13.5L6.09375 17.0156V1.875ZM11.3438 14.25C11.3125 13.7812 11.0625 13.5312 10.5938 13.5C10.125 13.5312 9.875 13.7812 9.84375 14.25V18.75C9.875 19.2188 10.125 19.4688 10.5938 19.5C11.0625 19.4688 11.3125 19.2188 11.3438 18.75V14.25ZM13.5938 13.5C13.125 13.5312 12.875 13.7812 12.8438 14.25V18.75C12.875 19.2188 13.125 19.4688 13.5938 19.5C14.0625 19.4688 14.3125 19.2188 14.3438 18.75V14.25C14.3125 13.7812 14.0625 13.5312 13.5938 13.5ZM17.3438 14.25C17.3125 13.7812 17.0625 13.5312 16.5938 13.5C16.125 13.5312 15.875 13.7812 15.8438 14.25V18.75C15.875 19.2188 16.125 19.4688 16.5938 19.5C17.0625 19.4688 17.3125 19.2188 17.3438 18.75V14.25Z" fill="white"/>
</svg>
